<mxfile host="app.diagrams.net" agent="Mozilla/5.0 (Windows NT 10.0; Win64; x64) AppleWebKit/537.36 (KHTML, like Gecko) Chrome/141.0.0.0 Safari/537.36" version="28.2.5">
  <diagram name="Страница — 1" id="qgZzyLTx_EewIQG8oJ7u">
    <mxGraphModel dx="980" dy="1103" grid="1" gridSize="10" guides="1" tooltips="1" connect="1" arrows="1" fold="1" page="1" pageScale="1" pageWidth="827" pageHeight="1169" math="0" shadow="0">
      <root>
        <mxCell id="0" />
        <mxCell id="1" parent="0" />
        <mxCell id="_fIXxr2wZgJfOrWsnZd_-2" value="" style="ellipse;whiteSpace=wrap;html=1;aspect=fixed;fillColor=light-dark(#FFFFFF,#B3FF66);strokeColor=light-dark(#000000,#000000);strokeWidth=3;" vertex="1" parent="1">
          <mxGeometry x="221" y="30" width="60" height="60" as="geometry" />
        </mxCell>
        <mxCell id="_fIXxr2wZgJfOrWsnZd_-3" value="Заяка клиента" style="text;strokeColor=none;align=center;fillColor=none;html=1;verticalAlign=middle;whiteSpace=wrap;rounded=0;" vertex="1" parent="1">
          <mxGeometry x="187" y="87" width="130" height="24" as="geometry" />
        </mxCell>
        <mxCell id="_fIXxr2wZgJfOrWsnZd_-59" style="edgeStyle=orthogonalEdgeStyle;rounded=0;orthogonalLoop=1;jettySize=auto;html=1;entryX=0.5;entryY=0;entryDx=0;entryDy=0;" edge="1" parent="1" source="_fIXxr2wZgJfOrWsnZd_-4" target="_fIXxr2wZgJfOrWsnZd_-5">
          <mxGeometry relative="1" as="geometry" />
        </mxCell>
        <mxCell id="_fIXxr2wZgJfOrWsnZd_-4" value="&lt;font style=&quot;font-size: 11px;&quot;&gt;Консультация и расчет стоимости&lt;/font&gt;" style="rounded=1;whiteSpace=wrap;html=1;fontColor=light-dark(#000000,#000000);fillColor=light-dark(#FFFFFF, #eef57a);" vertex="1" parent="1">
          <mxGeometry x="180" y="113" width="140" height="54" as="geometry" />
        </mxCell>
        <mxCell id="_fIXxr2wZgJfOrWsnZd_-11" style="edgeStyle=orthogonalEdgeStyle;rounded=1;orthogonalLoop=1;jettySize=auto;html=1;exitX=1;exitY=0.5;exitDx=0;exitDy=0;entryX=0.5;entryY=0;entryDx=0;entryDy=0;curved=0;" edge="1" parent="1" source="_fIXxr2wZgJfOrWsnZd_-5" target="_fIXxr2wZgJfOrWsnZd_-6">
          <mxGeometry relative="1" as="geometry" />
        </mxCell>
        <mxCell id="_fIXxr2wZgJfOrWsnZd_-19" value="Постоянная" style="edgeLabel;html=1;align=center;verticalAlign=middle;resizable=0;points=[];" vertex="1" connectable="0" parent="_fIXxr2wZgJfOrWsnZd_-11">
          <mxGeometry x="-0.3093" y="-1" relative="1" as="geometry">
            <mxPoint as="offset" />
          </mxGeometry>
        </mxCell>
        <mxCell id="_fIXxr2wZgJfOrWsnZd_-14" style="edgeStyle=orthogonalEdgeStyle;rounded=1;orthogonalLoop=1;jettySize=auto;html=1;exitX=0;exitY=0.5;exitDx=0;exitDy=0;entryX=0.5;entryY=0;entryDx=0;entryDy=0;curved=0;" edge="1" parent="1" source="_fIXxr2wZgJfOrWsnZd_-5" target="_fIXxr2wZgJfOrWsnZd_-7">
          <mxGeometry relative="1" as="geometry" />
        </mxCell>
        <mxCell id="_fIXxr2wZgJfOrWsnZd_-18" value="Разовая" style="edgeLabel;html=1;align=center;verticalAlign=middle;resizable=0;points=[];" vertex="1" connectable="0" parent="_fIXxr2wZgJfOrWsnZd_-14">
          <mxGeometry x="-0.1567" relative="1" as="geometry">
            <mxPoint x="8" as="offset" />
          </mxGeometry>
        </mxCell>
        <mxCell id="_fIXxr2wZgJfOrWsnZd_-5" value="" style="rhombus;whiteSpace=wrap;html=1;fillColor=light-dark(#FFFFFF,#FF9933);fontColor=light-dark(#000000,#000000);" vertex="1" parent="1">
          <mxGeometry x="207.13" y="190" width="85.75" height="64" as="geometry" />
        </mxCell>
        <mxCell id="_fIXxr2wZgJfOrWsnZd_-15" style="edgeStyle=orthogonalEdgeStyle;rounded=1;orthogonalLoop=1;jettySize=auto;html=1;exitX=0.5;exitY=1;exitDx=0;exitDy=0;entryX=1;entryY=0.5;entryDx=0;entryDy=0;curved=0;" edge="1" parent="1" source="_fIXxr2wZgJfOrWsnZd_-6" target="_fIXxr2wZgJfOrWsnZd_-8">
          <mxGeometry relative="1" as="geometry" />
        </mxCell>
        <mxCell id="_fIXxr2wZgJfOrWsnZd_-6" value="Встреча, просмотр объекта" style="rounded=1;whiteSpace=wrap;html=1;fontColor=light-dark(#000000,#000000);fillColor=light-dark(#FFFFFF, #eef57a);" vertex="1" parent="1">
          <mxGeometry x="353.5" y="270" width="120" height="60" as="geometry" />
        </mxCell>
        <mxCell id="_fIXxr2wZgJfOrWsnZd_-13" style="edgeStyle=orthogonalEdgeStyle;rounded=1;orthogonalLoop=1;jettySize=auto;html=1;entryX=0;entryY=0.5;entryDx=0;entryDy=0;curved=0;" edge="1" parent="1" source="_fIXxr2wZgJfOrWsnZd_-7" target="_fIXxr2wZgJfOrWsnZd_-8">
          <mxGeometry relative="1" as="geometry">
            <Array as="points">
              <mxPoint x="100" y="385" />
            </Array>
          </mxGeometry>
        </mxCell>
        <mxCell id="_fIXxr2wZgJfOrWsnZd_-7" value="Формирование КП" style="rounded=1;whiteSpace=wrap;html=1;fontColor=light-dark(#000000,#000000);fillColor=light-dark(#FFFFFF, #eef57a);" vertex="1" parent="1">
          <mxGeometry x="40" y="270" width="120" height="60" as="geometry" />
        </mxCell>
        <mxCell id="_fIXxr2wZgJfOrWsnZd_-16" style="edgeStyle=orthogonalEdgeStyle;rounded=0;orthogonalLoop=1;jettySize=auto;html=1;exitX=0.5;exitY=1;exitDx=0;exitDy=0;entryX=0.5;entryY=0;entryDx=0;entryDy=0;" edge="1" parent="1" source="_fIXxr2wZgJfOrWsnZd_-8" target="_fIXxr2wZgJfOrWsnZd_-57">
          <mxGeometry relative="1" as="geometry">
            <mxPoint x="250" y="448" as="targetPoint" />
          </mxGeometry>
        </mxCell>
        <mxCell id="_fIXxr2wZgJfOrWsnZd_-8" value="Заключение договора" style="rounded=1;whiteSpace=wrap;html=1;fontColor=light-dark(#000000,#000000);fillColor=light-dark(#FFFFFF, #eef57a);" vertex="1" parent="1">
          <mxGeometry x="190" y="350" width="120" height="70" as="geometry" />
        </mxCell>
        <mxCell id="_fIXxr2wZgJfOrWsnZd_-10" value="Клиент привлечён" style="text;strokeColor=none;align=center;fillColor=none;html=1;verticalAlign=middle;whiteSpace=wrap;rounded=0;" vertex="1" parent="1">
          <mxGeometry x="223" y="520" width="54" height="24" as="geometry" />
        </mxCell>
        <mxCell id="_fIXxr2wZgJfOrWsnZd_-20" value="" style="ellipse;whiteSpace=wrap;html=1;aspect=fixed;fillColor=light-dark(#FFFFFF,#B3FF66);strokeColor=light-dark(#000000,#000000);strokeWidth=3;" vertex="1" parent="1">
          <mxGeometry x="690" y="10" width="60" height="60" as="geometry" />
        </mxCell>
        <mxCell id="_fIXxr2wZgJfOrWsnZd_-21" value="Получен заказ" style="text;strokeColor=none;align=center;fillColor=none;html=1;verticalAlign=middle;whiteSpace=wrap;rounded=0;" vertex="1" parent="1">
          <mxGeometry x="665" y="70" width="110" height="24" as="geometry" />
        </mxCell>
        <mxCell id="_fIXxr2wZgJfOrWsnZd_-36" style="edgeStyle=orthogonalEdgeStyle;rounded=0;orthogonalLoop=1;jettySize=auto;html=1;exitX=0.5;exitY=1;exitDx=0;exitDy=0;entryX=0.5;entryY=0;entryDx=0;entryDy=0;" edge="1" parent="1" source="_fIXxr2wZgJfOrWsnZd_-22" target="_fIXxr2wZgJfOrWsnZd_-23">
          <mxGeometry relative="1" as="geometry" />
        </mxCell>
        <mxCell id="_fIXxr2wZgJfOrWsnZd_-22" value="Менеджер создает задачу в системе" style="rounded=1;whiteSpace=wrap;html=1;fontColor=light-dark(#000000,#000000);fillColor=light-dark(#FFFFFF, #eef57a);" vertex="1" parent="1">
          <mxGeometry x="661" y="100" width="118" height="67" as="geometry" />
        </mxCell>
        <mxCell id="_fIXxr2wZgJfOrWsnZd_-37" style="edgeStyle=orthogonalEdgeStyle;rounded=0;orthogonalLoop=1;jettySize=auto;html=1;exitX=0.5;exitY=1;exitDx=0;exitDy=0;entryX=0.5;entryY=0;entryDx=0;entryDy=0;" edge="1" parent="1" source="_fIXxr2wZgJfOrWsnZd_-23" target="_fIXxr2wZgJfOrWsnZd_-24">
          <mxGeometry relative="1" as="geometry" />
        </mxCell>
        <mxCell id="_fIXxr2wZgJfOrWsnZd_-23" value="Уведомить диспетчера" style="rounded=1;whiteSpace=wrap;html=1;fontColor=light-dark(#000000,#000000);fillColor=light-dark(#FFFFFF, #eef57a);" vertex="1" parent="1">
          <mxGeometry x="661" y="188.5" width="118" height="67" as="geometry" />
        </mxCell>
        <mxCell id="_fIXxr2wZgJfOrWsnZd_-38" style="edgeStyle=orthogonalEdgeStyle;rounded=0;orthogonalLoop=1;jettySize=auto;html=1;exitX=0.5;exitY=1;exitDx=0;exitDy=0;entryX=0.5;entryY=0;entryDx=0;entryDy=0;" edge="1" parent="1" source="_fIXxr2wZgJfOrWsnZd_-24" target="_fIXxr2wZgJfOrWsnZd_-25">
          <mxGeometry relative="1" as="geometry" />
        </mxCell>
        <mxCell id="_fIXxr2wZgJfOrWsnZd_-24" value="Диспетчер формирует команду клинеров и назначет дату/время" style="rounded=1;whiteSpace=wrap;html=1;fontSize=12;spacing=4;fontColor=light-dark(#000000,#000000);fillColor=light-dark(#FFFFFF, #eef57a);" vertex="1" parent="1">
          <mxGeometry x="635" y="271.5" width="170" height="67" as="geometry" />
        </mxCell>
        <mxCell id="_fIXxr2wZgJfOrWsnZd_-39" style="edgeStyle=orthogonalEdgeStyle;rounded=0;orthogonalLoop=1;jettySize=auto;html=1;exitX=0.5;exitY=1;exitDx=0;exitDy=0;entryX=0.5;entryY=0;entryDx=0;entryDy=0;" edge="1" parent="1" source="_fIXxr2wZgJfOrWsnZd_-25" target="_fIXxr2wZgJfOrWsnZd_-26">
          <mxGeometry relative="1" as="geometry" />
        </mxCell>
        <mxCell id="_fIXxr2wZgJfOrWsnZd_-25" value="Подготовка: заказ инвентаря и химии, инструктаж команды, формирование чек-листа" style="rounded=1;whiteSpace=wrap;html=1;spacing=4;fontSize=11;fontColor=light-dark(#000000,#000000);fillColor=light-dark(#FFFFFF, #eef57a);" vertex="1" parent="1">
          <mxGeometry x="650" y="353" width="140" height="67" as="geometry" />
        </mxCell>
        <mxCell id="_fIXxr2wZgJfOrWsnZd_-40" style="edgeStyle=orthogonalEdgeStyle;rounded=0;orthogonalLoop=1;jettySize=auto;html=1;exitX=0.5;exitY=1;exitDx=0;exitDy=0;entryX=0.5;entryY=0;entryDx=0;entryDy=0;" edge="1" parent="1" source="_fIXxr2wZgJfOrWsnZd_-26" target="_fIXxr2wZgJfOrWsnZd_-27">
          <mxGeometry relative="1" as="geometry" />
        </mxCell>
        <mxCell id="_fIXxr2wZgJfOrWsnZd_-26" value="Выезд команды на объект" style="rounded=1;whiteSpace=wrap;html=1;fontColor=light-dark(#000000,#000000);fillColor=light-dark(#FFFFFF, #eef57a);" vertex="1" parent="1">
          <mxGeometry x="650" y="441" width="140" height="55" as="geometry" />
        </mxCell>
        <mxCell id="_fIXxr2wZgJfOrWsnZd_-41" style="edgeStyle=orthogonalEdgeStyle;rounded=0;orthogonalLoop=1;jettySize=auto;html=1;exitX=0.5;exitY=1;exitDx=0;exitDy=0;entryX=0.5;entryY=0;entryDx=0;entryDy=0;" edge="1" parent="1" source="_fIXxr2wZgJfOrWsnZd_-27" target="_fIXxr2wZgJfOrWsnZd_-34">
          <mxGeometry relative="1" as="geometry" />
        </mxCell>
        <mxCell id="_fIXxr2wZgJfOrWsnZd_-27" value="Выполнение уборки по чек-листу" style="rounded=1;whiteSpace=wrap;html=1;fontColor=light-dark(#000000,#000000);fillColor=light-dark(#FFFFFF, #eef57a);" vertex="1" parent="1">
          <mxGeometry x="650" y="510" width="140" height="55" as="geometry" />
        </mxCell>
        <mxCell id="_fIXxr2wZgJfOrWsnZd_-46" style="edgeStyle=orthogonalEdgeStyle;rounded=0;orthogonalLoop=1;jettySize=auto;html=1;exitX=0.5;exitY=1;exitDx=0;exitDy=0;entryX=0.5;entryY=0;entryDx=0;entryDy=0;" edge="1" parent="1" source="_fIXxr2wZgJfOrWsnZd_-28" target="_fIXxr2wZgJfOrWsnZd_-29">
          <mxGeometry relative="1" as="geometry" />
        </mxCell>
        <mxCell id="_fIXxr2wZgJfOrWsnZd_-28" value="Фотоотчет/Контроль качества от старшего клинера" style="rounded=1;whiteSpace=wrap;html=1;fontSize=11;spacing=3;fontColor=light-dark(#000000,#000000);fillColor=light-dark(#FFFFFF, #eef57a);" vertex="1" parent="1">
          <mxGeometry x="664" y="690" width="112" height="69" as="geometry" />
        </mxCell>
        <mxCell id="_fIXxr2wZgJfOrWsnZd_-47" style="edgeStyle=orthogonalEdgeStyle;rounded=0;orthogonalLoop=1;jettySize=auto;html=1;exitX=0.5;exitY=1;exitDx=0;exitDy=0;entryX=0.5;entryY=0;entryDx=0;entryDy=0;" edge="1" parent="1" source="_fIXxr2wZgJfOrWsnZd_-29" target="_fIXxr2wZgJfOrWsnZd_-30">
          <mxGeometry relative="1" as="geometry" />
        </mxCell>
        <mxCell id="_fIXxr2wZgJfOrWsnZd_-29" value="Уведомить менеджера о завершении работ" style="rounded=1;whiteSpace=wrap;html=1;fontSize=11;spacing=3;fontColor=light-dark(#000000,#000000);fillColor=light-dark(#FFFFFF, #eef57a);" vertex="1" parent="1">
          <mxGeometry x="664" y="780" width="112" height="69" as="geometry" />
        </mxCell>
        <mxCell id="_fIXxr2wZgJfOrWsnZd_-48" style="edgeStyle=orthogonalEdgeStyle;rounded=0;orthogonalLoop=1;jettySize=auto;html=1;entryX=0.5;entryY=0;entryDx=0;entryDy=0;" edge="1" parent="1" source="_fIXxr2wZgJfOrWsnZd_-30" target="_fIXxr2wZgJfOrWsnZd_-35">
          <mxGeometry relative="1" as="geometry" />
        </mxCell>
        <mxCell id="_fIXxr2wZgJfOrWsnZd_-30" value="Менеджер связывается с клиентом для проверки качества" style="rounded=1;whiteSpace=wrap;html=1;fontSize=11;spacing=3;fontColor=light-dark(#000000,#000000);fillColor=light-dark(#FFFFFF, #eef57a);" vertex="1" parent="1">
          <mxGeometry x="661" y="870" width="112" height="60" as="geometry" />
        </mxCell>
        <mxCell id="_fIXxr2wZgJfOrWsnZd_-54" style="edgeStyle=orthogonalEdgeStyle;rounded=0;orthogonalLoop=1;jettySize=auto;html=1;exitX=0.5;exitY=1;exitDx=0;exitDy=0;entryX=0.5;entryY=0;entryDx=0;entryDy=0;" edge="1" parent="1" source="_fIXxr2wZgJfOrWsnZd_-31" target="_fIXxr2wZgJfOrWsnZd_-32">
          <mxGeometry relative="1" as="geometry" />
        </mxCell>
        <mxCell id="_fIXxr2wZgJfOrWsnZd_-31" value="Фиксация замечаний" style="rounded=1;whiteSpace=wrap;html=1;fontColor=light-dark(#000000,#000000);fillColor=light-dark(#FFFFFF, #eef57a);" vertex="1" parent="1">
          <mxGeometry x="495" y="1016" width="95" height="54" as="geometry" />
        </mxCell>
        <mxCell id="_fIXxr2wZgJfOrWsnZd_-32" value="Исправление замечаний на месте" style="rounded=1;whiteSpace=wrap;html=1;fontColor=light-dark(#000000,#000000);fillColor=light-dark(#FFFFFF, #eef57a);" vertex="1" parent="1">
          <mxGeometry x="495" y="1110" width="95" height="54" as="geometry" />
        </mxCell>
        <mxCell id="_fIXxr2wZgJfOrWsnZd_-64" style="edgeStyle=orthogonalEdgeStyle;rounded=0;orthogonalLoop=1;jettySize=auto;html=1;exitX=0.5;exitY=1;exitDx=0;exitDy=0;entryX=0.5;entryY=0;entryDx=0;entryDy=0;" edge="1" parent="1" source="_fIXxr2wZgJfOrWsnZd_-33" target="_fIXxr2wZgJfOrWsnZd_-62">
          <mxGeometry relative="1" as="geometry" />
        </mxCell>
        <mxCell id="_fIXxr2wZgJfOrWsnZd_-33" value="Клинеры сдают объект" style="rounded=1;whiteSpace=wrap;html=1;fontColor=light-dark(#000000,#000000);fillColor=light-dark(#FFFFFF, #eef57a);" vertex="1" parent="1">
          <mxGeometry x="835" y="1024" width="105" height="54" as="geometry" />
        </mxCell>
        <mxCell id="_fIXxr2wZgJfOrWsnZd_-42" style="edgeStyle=orthogonalEdgeStyle;rounded=1;orthogonalLoop=1;jettySize=auto;html=1;exitX=1;exitY=0.5;exitDx=0;exitDy=0;entryX=1;entryY=0.5;entryDx=0;entryDy=0;curved=0;" edge="1" parent="1" source="_fIXxr2wZgJfOrWsnZd_-34" target="_fIXxr2wZgJfOrWsnZd_-27">
          <mxGeometry relative="1" as="geometry" />
        </mxCell>
        <mxCell id="_fIXxr2wZgJfOrWsnZd_-43" value="Нет" style="edgeLabel;html=1;align=center;verticalAlign=middle;resizable=0;points=[];" vertex="1" connectable="0" parent="_fIXxr2wZgJfOrWsnZd_-42">
          <mxGeometry x="-0.0524" y="-1" relative="1" as="geometry">
            <mxPoint x="-1" y="9" as="offset" />
          </mxGeometry>
        </mxCell>
        <mxCell id="_fIXxr2wZgJfOrWsnZd_-44" style="edgeStyle=orthogonalEdgeStyle;rounded=1;orthogonalLoop=1;jettySize=auto;html=1;exitX=0;exitY=0.5;exitDx=0;exitDy=0;entryX=0;entryY=0.5;entryDx=0;entryDy=0;curved=0;" edge="1" parent="1" source="_fIXxr2wZgJfOrWsnZd_-34" target="_fIXxr2wZgJfOrWsnZd_-28">
          <mxGeometry relative="1" as="geometry" />
        </mxCell>
        <mxCell id="_fIXxr2wZgJfOrWsnZd_-45" value="Да" style="edgeLabel;html=1;align=center;verticalAlign=middle;resizable=0;points=[];" vertex="1" connectable="0" parent="_fIXxr2wZgJfOrWsnZd_-44">
          <mxGeometry x="-0.0725" relative="1" as="geometry">
            <mxPoint y="-16" as="offset" />
          </mxGeometry>
        </mxCell>
        <mxCell id="_fIXxr2wZgJfOrWsnZd_-34" value="&lt;span style=&quot;font-family: Helvetica, &amp;quot;VP Default&amp;quot;;&quot;&gt;&lt;font style=&quot;font-size: 10px;&quot;&gt;Клинер: Уборка завешена?&lt;/font&gt;&lt;/span&gt;" style="rhombus;whiteSpace=wrap;html=1;fillColor=light-dark(#FFFFFF,#FF9933);fontColor=light-dark(#000000,#000000);" vertex="1" parent="1">
          <mxGeometry x="625" y="590" width="190" height="64" as="geometry" />
        </mxCell>
        <mxCell id="_fIXxr2wZgJfOrWsnZd_-49" style="edgeStyle=orthogonalEdgeStyle;rounded=1;orthogonalLoop=1;jettySize=auto;html=1;exitX=0;exitY=0.5;exitDx=0;exitDy=0;entryX=0.5;entryY=0;entryDx=0;entryDy=0;curved=0;" edge="1" parent="1" source="_fIXxr2wZgJfOrWsnZd_-35" target="_fIXxr2wZgJfOrWsnZd_-31">
          <mxGeometry relative="1" as="geometry" />
        </mxCell>
        <mxCell id="_fIXxr2wZgJfOrWsnZd_-50" value="Нет" style="edgeLabel;html=1;align=center;verticalAlign=middle;resizable=0;points=[];" vertex="1" connectable="0" parent="_fIXxr2wZgJfOrWsnZd_-49">
          <mxGeometry x="-0.1097" y="2" relative="1" as="geometry">
            <mxPoint as="offset" />
          </mxGeometry>
        </mxCell>
        <mxCell id="_fIXxr2wZgJfOrWsnZd_-51" style="edgeStyle=orthogonalEdgeStyle;rounded=1;orthogonalLoop=1;jettySize=auto;html=1;exitX=1;exitY=0.5;exitDx=0;exitDy=0;entryX=0.5;entryY=0;entryDx=0;entryDy=0;curved=0;" edge="1" parent="1" source="_fIXxr2wZgJfOrWsnZd_-35" target="_fIXxr2wZgJfOrWsnZd_-33">
          <mxGeometry relative="1" as="geometry" />
        </mxCell>
        <mxCell id="_fIXxr2wZgJfOrWsnZd_-52" value="Да" style="edgeLabel;html=1;align=center;verticalAlign=middle;resizable=0;points=[];" vertex="1" connectable="0" parent="_fIXxr2wZgJfOrWsnZd_-51">
          <mxGeometry x="-0.2363" relative="1" as="geometry">
            <mxPoint as="offset" />
          </mxGeometry>
        </mxCell>
        <mxCell id="_fIXxr2wZgJfOrWsnZd_-53" style="edgeStyle=orthogonalEdgeStyle;rounded=1;orthogonalLoop=1;jettySize=auto;html=1;exitX=0.5;exitY=1;exitDx=0;exitDy=0;entryX=1;entryY=0.5;entryDx=0;entryDy=0;endArrow=none;endFill=0;curved=0;startArrow=classic;startFill=1;" edge="1" parent="1" source="_fIXxr2wZgJfOrWsnZd_-35" target="_fIXxr2wZgJfOrWsnZd_-32">
          <mxGeometry relative="1" as="geometry" />
        </mxCell>
        <mxCell id="_fIXxr2wZgJfOrWsnZd_-35" value="Клиент доволен?" style="rhombus;whiteSpace=wrap;html=1;fontSize=11;spacing=3;fillColor=light-dark(#FFFFFF,#FF9933);fontColor=light-dark(#000000,#000000);" vertex="1" parent="1">
          <mxGeometry x="673" y="956" width="87" height="68" as="geometry" />
        </mxCell>
        <mxCell id="_fIXxr2wZgJfOrWsnZd_-55" value="" style="ellipse;whiteSpace=wrap;html=1;aspect=fixed;fillColor=#e51400;fontColor=#ffffff;strokeColor=light-dark(#000000,#000000);strokeWidth=3;" vertex="1" parent="1">
          <mxGeometry x="857.5" y="1200" width="60" height="60" as="geometry" />
        </mxCell>
        <mxCell id="_fIXxr2wZgJfOrWsnZd_-57" value="" style="ellipse;whiteSpace=wrap;html=1;aspect=fixed;fillColor=#e51400;fontColor=#ffffff;strokeColor=light-dark(#000000,#000000);strokeWidth=3;" vertex="1" parent="1">
          <mxGeometry x="220" y="450" width="60" height="60" as="geometry" />
        </mxCell>
        <mxCell id="_fIXxr2wZgJfOrWsnZd_-58" value="&lt;font style=&quot;font-size: 10px;&quot;&gt;Тип уборки&lt;/font&gt;" style="text;strokeColor=none;align=center;fillColor=none;html=1;verticalAlign=middle;whiteSpace=wrap;rounded=0;" vertex="1" parent="1">
          <mxGeometry x="220" y="255.5" width="60" height="16" as="geometry" />
        </mxCell>
        <mxCell id="_fIXxr2wZgJfOrWsnZd_-61" value="&lt;font style=&quot;color: light-dark(rgb(237, 237, 237), rgb(255, 255, 255)); font-size: 18px;&quot;&gt;Процесс продаж и привлечения клиента&lt;/font&gt;" style="rounded=0;whiteSpace=wrap;html=1;spacing=5;" vertex="1" parent="1">
          <mxGeometry x="7" y="10" width="180" height="80" as="geometry" />
        </mxCell>
        <mxCell id="_fIXxr2wZgJfOrWsnZd_-65" style="edgeStyle=orthogonalEdgeStyle;rounded=0;orthogonalLoop=1;jettySize=auto;html=1;exitX=0.5;exitY=1;exitDx=0;exitDy=0;entryX=0.5;entryY=0;entryDx=0;entryDy=0;" edge="1" parent="1" source="_fIXxr2wZgJfOrWsnZd_-62" target="_fIXxr2wZgJfOrWsnZd_-55">
          <mxGeometry relative="1" as="geometry" />
        </mxCell>
        <mxCell id="_fIXxr2wZgJfOrWsnZd_-62" value="Клиент подписывает акт выполненных работ" style="rounded=1;whiteSpace=wrap;html=1;fontColor=light-dark(#000000,#000000);fillColor=light-dark(#FFFFFF, #eef57a);" vertex="1" parent="1">
          <mxGeometry x="835" y="1094.5" width="105" height="85" as="geometry" />
        </mxCell>
        <mxCell id="_fIXxr2wZgJfOrWsnZd_-68" value="&lt;p&gt;&lt;span style=&quot;color: rgb(0, 0, 0); background-color: rgb(255, 255, 255);&quot;&gt;&lt;font style=&quot;font-size: 17px;&quot; face=&quot;Helvetica&quot;&gt;Основной исполнительный процесс: выполнение уборки&lt;/font&gt;&lt;/span&gt;&lt;/p&gt;" style="rounded=0;whiteSpace=wrap;html=1;spacing=5;" vertex="1" parent="1">
          <mxGeometry x="414" y="14" width="235" height="80" as="geometry" />
        </mxCell>
      </root>
    </mxGraphModel>
  </diagram>
</mxfile>
